<svg width="10" height="15" viewBox="0 0 10 15" fill="none" xmlns="http://www.w3.org/2000/svg">
<path id="Primary" d="M7.98864 7.29199C8.39773 6.68848 8.63636 5.95312 8.63636 5.15625C8.63636 3.08496 7.00852 1.40625 5 1.40625C2.99148 1.40625 1.36364 3.08496 1.36364 5.15625C1.36364 5.95312 1.60227 6.68848 2.01136 7.29199C2.11648 7.44727 2.24148 7.62305 2.375 7.81055C2.74148 8.3291 3.17898 8.9502 3.50568 9.5625C3.80114 10.1191 3.9517 10.6992 4.02557 11.2471L2.64205 11.25C2.57955 10.8984 2.47443 10.5557 2.30682 10.2393C2.02557 9.71191 1.67614 9.2168 1.3267 8.72168C1.17898 8.51367 1.03125 8.30566 0.889205 8.09473C0.329545 7.26269 0 6.24902 0 5.15625C0 2.30859 2.23864 0 5 0C7.76136 0 10 2.30859 10 5.15625C10 6.24902 9.67045 7.26269 9.10795 8.09473C8.96591 8.30566 8.81818 8.51367 8.67045 8.72168C8.32102 9.21387 7.97159 9.70898 7.69034 10.2393C7.52273 10.5557 7.41761 10.8984 7.35511 11.25H5.97443C6.0483 10.7021 6.19886 10.1191 6.49432 9.56543C6.82102 8.95312 7.25852 8.33203 7.625 7.81348C7.75852 7.62598 7.88068 7.4502 7.9858 7.29492L7.98864 7.29199ZM5 3.75C4.24716 3.75 3.63636 4.37988 3.63636 5.15625C3.63636 5.41406 3.43182 5.625 3.18182 5.625C2.93182 5.625 2.72727 5.41406 2.72727 5.15625C2.72727 3.86133 3.74432 2.8125 5 2.8125C5.25 2.8125 5.45455 3.02344 5.45455 3.28125C5.45455 3.53906 5.25 3.75 5 3.75ZM5 15C3.74432 15 2.72727 13.9512 2.72727 12.6562V12.1875H7.27273V12.6562C7.27273 13.9512 6.25568 15 5 15Z" fill="#003100"/>
</svg>
