<svg width="12" height="14" viewBox="0 0 12 14" fill="none" xmlns="http://www.w3.org/2000/svg">
<path id="Primary" d="M5.57143 0.0161133H8.89554C9.23571 0.0161133 9.5625 0.147269 9.80357 0.378721L11.6223 2.1249C11.8634 2.35635 12 2.67009 12 2.9967V8.65698C12 9.33848 11.4241 9.89139 10.7143 9.89139H5.57143C4.86161 9.89139 4.28571 9.33848 4.28571 8.65698V1.25052C4.28571 0.569026 4.86161 0.0161133 5.57143 0.0161133ZM1.28571 3.30787H3.42857V4.95375H1.71429V11.5373H6.85714V10.7143H8.57143V11.9487C8.57143 12.6302 7.99554 13.1831 7.28571 13.1831H1.28571C0.575893 13.1831 0 12.6302 0 11.9487V4.54228C0 3.86079 0.575893 3.30787 1.28571 3.30787Z" fill="#D8DEE9" fill-opacity="0.6"/>
</svg>
