<svg width="22" height="22" viewBox="0 0 22 22" fill="none" xmlns="http://www.w3.org/2000/svg">
<path d="M0 3.14286C0 1.40937 1.40937 0 3.14286 0H18.8571C20.5906 0 22 1.40937 22 3.14286V18.8571C22 20.5906 20.5906 22 18.8571 22H3.14286C1.40937 22 0 20.5906 0 18.8571V3.14286ZM17.2857 15.7143C17.2857 15.2975 17.1202 14.8978 16.8255 14.6031C16.5308 14.3084 16.1311 14.1429 15.7143 14.1429C15.2975 14.1429 14.8978 14.3084 14.6031 14.6031C14.3084 14.8978 14.1429 15.2975 14.1429 15.7143C14.1429 16.1311 14.3084 16.5308 14.6031 16.8255C14.8978 17.1202 15.2975 17.2857 15.7143 17.2857C16.1311 17.2857 16.5308 17.1202 16.8255 16.8255C17.1202 16.5308 17.2857 16.1311 17.2857 15.7143ZM6.28571 7.85714C6.70248 7.85714 7.10218 7.69158 7.39688 7.39688C7.69158 7.10218 7.85714 6.70248 7.85714 6.28571C7.85714 5.86895 7.69158 5.46925 7.39688 5.17455C7.10218 4.87985 6.70248 4.71429 6.28571 4.71429C5.86895 4.71429 5.46925 4.87985 5.17455 5.17455C4.87985 5.46925 4.71429 5.86895 4.71429 6.28571C4.71429 6.70248 4.87985 7.10218 5.17455 7.39688C5.46925 7.69158 5.86895 7.85714 6.28571 7.85714Z" fill="#363636"/>
</svg>
