<svg width="48" height="37" viewBox="0 0 48 37" fill="none" xmlns="http://www.w3.org/2000/svg">
<path d="M40.4911 3.81354C40.478 3.78825 40.4562 3.76844 40.4296 3.75764C37.3617 2.36076 34.1241 1.36468 30.798 0.794313C30.7677 0.788738 30.7365 0.79276 30.7087 0.805807C30.681 0.818855 30.658 0.840263 30.6432 0.866987C30.2023 1.66104 29.8022 2.47666 29.4441 3.31074C25.8587 2.77062 22.2117 2.77062 18.6263 3.31074C18.2659 2.47454 17.8593 1.65872 17.4083 0.866987C17.3928 0.840843 17.3698 0.819928 17.3422 0.806966C17.3145 0.794004 17.2836 0.789595 17.2534 0.794313C13.9269 1.36348 10.6892 2.35964 7.62161 3.75772C7.59535 3.76877 7.57319 3.78763 7.5582 3.81171C1.4237 12.9029 -0.256769 21.7706 0.567612 30.5285C0.569931 30.55 0.576577 30.5708 0.587153 30.5896C0.597729 30.6085 0.61202 30.6251 0.629175 30.6383C4.20123 33.263 8.19663 35.2664 12.4449 36.5631C12.4748 36.5721 12.5067 36.5717 12.5364 36.562C12.5661 36.5524 12.5921 36.5339 12.6109 36.5092C13.5233 35.2771 14.3318 33.9725 15.0281 32.6086C15.0377 32.5899 15.0431 32.5694 15.0441 32.5484C15.0451 32.5274 15.0416 32.5065 15.0339 32.487C15.0261 32.4674 15.0143 32.4498 14.9992 32.4351C14.984 32.4204 14.9659 32.4091 14.9461 32.4019C13.6712 31.9178 12.4369 31.3343 11.2549 30.6567C11.2334 30.6442 11.2154 30.6266 11.2024 30.6055C11.1894 30.5844 11.1818 30.5605 11.1803 30.5358C11.1789 30.5111 11.1835 30.4865 11.1939 30.464C11.2043 30.4416 11.2202 30.422 11.24 30.4071C11.488 30.2227 11.7362 30.0308 11.973 29.8371C11.9941 29.8199 12.0195 29.8089 12.0465 29.8053C12.0736 29.8016 12.1011 29.8056 12.1259 29.8166C19.8699 33.3239 28.2538 33.3239 35.9062 29.8166C35.9311 29.8049 35.9589 29.8004 35.9863 29.8037C36.0137 29.807 36.0396 29.8179 36.061 29.8352C36.2979 30.029 36.546 30.2227 36.7959 30.4071C36.8158 30.4219 36.8318 30.4413 36.8424 30.4637C36.8529 30.486 36.8578 30.5107 36.8565 30.5353C36.8552 30.56 36.8478 30.584 36.835 30.6052C36.8221 30.6263 36.8042 30.644 36.7829 30.6567C35.6035 31.34 34.3681 31.9231 33.0899 32.4001C33.07 32.4076 33.052 32.4191 33.037 32.434C33.0219 32.4489 33.0102 32.4668 33.0026 32.4865C32.995 32.5061 32.9917 32.5272 32.9929 32.5482C32.994 32.5693 32.9997 32.5898 33.0094 32.6086C33.7174 33.9649 34.5247 35.2679 35.4248 36.507C35.443 36.5324 35.4689 36.5515 35.4987 36.5615C35.5285 36.5716 35.5607 36.572 35.5908 36.5629C39.8466 35.2706 43.849 33.267 47.4255 30.6383C47.4429 30.6257 47.4574 30.6096 47.4681 30.5909C47.4787 30.5723 47.4852 30.5517 47.4871 30.5304C48.474 20.4053 45.8348 11.6103 40.4911 3.81354ZM16.1846 25.1959C13.8531 25.1959 11.932 23.0726 11.932 20.465C11.932 17.8574 13.8158 15.7339 16.1846 15.7339C18.5719 15.7339 20.4744 17.8758 20.4371 20.4648C20.4371 23.0726 18.5532 25.1959 16.1846 25.1959ZM31.9077 25.1959C29.5763 25.1959 27.6552 23.0726 27.6552 20.465C27.6552 17.8574 29.539 15.7339 31.9077 15.7339C34.2951 15.7339 36.1976 17.8758 36.1603 20.4648C36.1603 23.0726 34.2951 25.1959 31.9077 25.1959Z" fill="#C3A4F6" fill-opacity="0.72"/>
</svg>
