<svg width="15" height="12" viewBox="0 0 15 12" fill="none" xmlns="http://www.w3.org/2000/svg">
<path d="M5.81563 8.27188C5.81563 8.925 5.475 9.99375 4.66875 9.99375C3.8625 9.99375 3.52187 8.925 3.52187 8.27188C3.52187 7.61875 3.8625 6.55 4.66875 6.55C5.475 6.55 5.81563 7.61875 5.81563 8.27188ZM15 6.69375C15 7.69063 14.9 8.74688 14.4531 9.6625C13.2688 12.0563 10.0125 12 7.68125 12C5.3125 12 1.8625 12.0844 0.63125 9.6625C0.175 8.75625 0 7.69063 0 6.69375C0 5.38438 0.434375 4.14688 1.29688 3.14375C1.13437 2.65 1.05625 2.13125 1.05625 1.61875C1.05625 0.946875 1.20938 0.609375 1.5125 0C2.92812 0 3.83437 0.28125 4.9125 1.125C5.81875 0.909375 6.75 0.8125 7.68437 0.8125C8.52812 0.8125 9.37812 0.903125 10.1969 1.1C11.2594 0.265625 12.1656 0 13.5656 0C13.8719 0.609375 14.0219 0.946875 14.0219 1.61875C14.0219 2.13125 13.9406 2.64062 13.7812 3.125C14.6406 4.1375 15 5.38438 15 6.69375ZM12.9906 8.27188C12.9906 6.9 12.1562 5.69063 10.6938 5.69063C10.1031 5.69063 9.5375 5.79688 8.94375 5.87813C8.47813 5.95 8.0125 5.97813 7.53438 5.97813C7.05938 5.97813 6.59375 5.95 6.125 5.87813C5.54063 5.79688 4.96875 5.69063 4.375 5.69063C2.9125 5.69063 2.07812 6.9 2.07812 8.27188C2.07812 11.0156 4.59062 11.4375 6.77812 11.4375H8.28438C10.4813 11.4375 12.9906 11.0188 12.9906 8.27188ZM10.4094 6.55C9.60313 6.55 9.2625 7.61875 9.2625 8.27188C9.2625 8.925 9.60313 9.99375 10.4094 9.99375C11.2156 9.99375 11.5562 8.925 11.5562 8.27188C11.5562 7.61875 11.2156 6.55 10.4094 6.55Z" fill="white"/>
</svg>
