<svg width="39" height="29" viewBox="0 0 39 29" fill="none" xmlns="http://www.w3.org/2000/svg">
<path id="Primary" d="M0 10.6983C0 4.82248 4.67478 0.0633545 10.4464 0.0633545H11.1429C12.6837 0.0633545 13.9286 1.33068 13.9286 2.89933C13.9286 4.46798 12.6837 5.73531 11.1429 5.73531H10.4464C7.75647 5.73531 5.57143 7.95978 5.57143 10.6983V11.4073H11.1429C14.2158 11.4073 16.7143 13.9508 16.7143 17.0792V22.7512C16.7143 25.8796 14.2158 28.4231 11.1429 28.4231H5.57143C2.49844 28.4231 0 25.8796 0 22.7512V19.9152V17.0792V10.6983ZM22.2857 10.6983C22.2857 4.82248 26.9605 0.0633545 32.7321 0.0633545H33.4286C34.9694 0.0633545 36.2143 1.33068 36.2143 2.89933C36.2143 4.46798 34.9694 5.73531 33.4286 5.73531H32.7321C30.0422 5.73531 27.8571 7.95978 27.8571 10.6983V11.4073H33.4286C36.5016 11.4073 39 13.9508 39 17.0792V22.7512C39 25.8796 36.5016 28.4231 33.4286 28.4231H27.8571C24.7842 28.4231 22.2857 25.8796 22.2857 22.7512V19.9152V17.0792V10.6983Z" fill="#E6FA00"/>
</svg>
