<svg width="22" height="22" viewBox="0 0 22 22" fill="none" xmlns="http://www.w3.org/2000/svg">
<path d="M0 1.57143C0 0.702232 0.702232 0 1.57143 0C12.8562 0 22 9.14375 22 20.4286C22 21.2978 21.2978 22 20.4286 22C19.5594 22 18.8571 21.2978 18.8571 20.4286C18.8571 10.8821 11.1179 3.14286 1.57143 3.14286C0.702232 3.14286 0 2.44062 0 1.57143ZM0 18.8571C0 18.0236 0.331122 17.2242 0.920522 16.6348C1.50992 16.0454 2.30932 15.7143 3.14286 15.7143C3.97639 15.7143 4.77579 16.0454 5.36519 16.6348C5.95459 17.2242 6.28571 18.0236 6.28571 18.8571C6.28571 19.6907 5.95459 20.4901 5.36519 21.0795C4.77579 21.6689 3.97639 22 3.14286 22C2.30932 22 1.50992 21.6689 0.920522 21.0795C0.331122 20.4901 0 19.6907 0 18.8571ZM1.57143 6.28571C9.38438 6.28571 15.7143 12.6156 15.7143 20.4286C15.7143 21.2978 15.0121 22 14.1429 22C13.2737 22 12.5714 21.2978 12.5714 20.4286C12.5714 14.354 7.64598 9.42857 1.57143 9.42857C0.702232 9.42857 0 8.72634 0 7.85714C0 6.98795 0.702232 6.28571 1.57143 6.28571Z" fill="#363636"/>
</svg>
