<svg width="13" height="16" viewBox="0 0 13 16" fill="none" xmlns="http://www.w3.org/2000/svg">
<path d="M9.84375 7.36562C9.9125 7.39375 9.975 7.425 10.0406 7.45312C10.9531 7.89375 11.6219 8.55312 11.9719 9.37187C12.4625 10.5125 12.5094 12.3656 11.025 13.8469C9.89375 14.9781 8.51562 15.4875 6.56875 15.5031H6.55937C4.36562 15.4875 2.68125 14.75 1.54688 13.3094C0.5375 12.0281 0.01875 10.2437 0 8.00937V8V7.99375C0.015625 5.75938 0.534375 3.975 1.54375 2.69375C2.67812 1.25312 4.36562 0.515625 6.55937 0.5H6.56875C8.76562 0.515625 10.4719 1.25 11.6406 2.68438C12.2156 3.39375 12.6406 4.24688 12.9094 5.2375L11.6469 5.575C11.425 4.76875 11.0906 4.08125 10.6406 3.53125C9.72812 2.4125 8.35938 1.8375 6.5625 1.825C4.78125 1.84063 3.43438 2.4125 2.55625 3.525C1.7375 4.56563 1.3125 6.07188 1.29688 8C1.3125 9.92813 1.7375 11.4344 2.55625 12.4781C3.43125 13.5906 4.78125 14.1625 6.5625 14.1781C8.16875 14.1656 9.23125 13.7844 10.1156 12.9C11.125 11.8937 11.1062 10.6562 10.7844 9.90312C10.5938 9.45937 10.25 9.09062 9.7875 8.8125C9.67188 9.65312 9.41875 10.3219 9.01562 10.8375C8.48125 11.5187 7.72188 11.8875 6.74375 11.9406C6.00625 11.9812 5.29688 11.8031 4.74687 11.4406C4.09687 11.0094 3.71563 10.3531 3.675 9.5875C3.59688 8.07812 4.79063 6.99375 6.65 6.8875C7.30938 6.85 7.92812 6.87812 8.5 6.975C8.425 6.5125 8.27187 6.14375 8.04375 5.875C7.73125 5.50938 7.24375 5.32188 6.6 5.31875H6.57812C6.05937 5.31875 5.35938 5.4625 4.9125 6.14062L3.8375 5.40312C4.4375 4.49375 5.40938 3.99375 6.58125 3.99375H6.60625C8.5625 4.00625 9.72813 5.22813 9.84688 7.35938L9.84062 7.36562H9.84375ZM4.96875 9.51562C5.00938 10.3 5.85625 10.6656 6.675 10.6187C7.475 10.575 8.38125 10.2625 8.53438 8.33125C8.12187 8.24063 7.66563 8.19375 7.17812 8.19375C7.02812 8.19375 6.87813 8.19688 6.72813 8.20625C5.3875 8.28125 4.94063 8.93125 4.97188 9.5125L4.96875 9.51562Z" fill="#8B9BCC"/>
</svg>
